<svg 
    xmlns="http://www.w3.org/2000/svg" 
    width="229.605" 
    height="132.227" 
    viewBox="0 0 229.605 132.227">
   
    <path 
        d="M3485.614,1955.22v11.006h-68.542a45.9,45.9,0,0,0,0-11.006,45.888,45.888,0,0,0-12.23-26.045,47.065,47.065,0,0,0-8.5-7.058,45.858,45.858,0,0,0-50.547.524,46.319,46.319,0,0,0-8.323,7.221,45.852,45.852,0,0,0-11.611,36.363h-69.85V1955.22h58.773a56.683,56.683,0,0,1,14.9-33.143L3282.6,1875l7.772-7.773,47.532,47.519a56.63,56.63,0,0,1,28.053-10.7V1834h11.005v70.043a56.625,56.625,0,0,1,27.3,10.153l46.97-46.97,7.786,7.773-46.4,46.405a56.682,56.682,0,0,1,15.533,33.818Z" 
        transform="translate(-3256.009 -1833.998)" 
        fill="#48525e"/>
        
    <path 
        d="M3279.848,1925.887h113.176l-5.956-28.477-23.331-25.094-42.441-1.585-16.381,16.114-17.622,26.151Z" 
        transform="translate(-3224.085 -1793.66)" 
        fill="#48525e"/>
        
</svg>