<svg xmlns="http://www.w3.org/2000/svg" width="849.518" height="384.655" viewBox="0 0 849.518 384.655"><defs><style>.a,.b,.c,.i,.j{fill:#0c0d0d;}.a,.b,.c,.f,.g,.k{stroke:#0c0d0d;}.a,.d,.f,.g,.i,.k,.l,.m,.n,.p,.q,.r,.s,.t,.v{stroke-miterlimit:10;}.b,.d,.e,.k,.l,.m,.p,.u{stroke-linecap:round;}.b,.e,.u{stroke-linejoin:round;}.b,.d,.f,.k,.l,.m,.n,.p{stroke-width:2px;}.d,.l,.m,.n,.p,.r,.s,.t,.v{fill:none;}.d{stroke:#e2e2e2;}.e,.h,.k,.u{fill:#dbdbdb;}.e{stroke:#050606;}.f,.g{fill:#e2e2e2;}.i,.m,.s,.t,.u,.v{stroke:#141212;}.l,.n,.q{stroke:#1a1818;}.o,.q{fill:#141212;}.p,.r{stroke:#dbdbdb;}.r,.s{stroke-width:0.5px;}.t,.u,.v{stroke-width:1.5px;}.v{fill-rule:evenodd;}</style></defs><g transform="translate(-930.481 -235.013)"><g transform="translate(1307.475 2297.091)"><g transform="translate(-112.497 -2020.148)"><path class="a" d="M13.091-1729.522q-32.775,7.91-47.178,21.47l14.125-31.641,37.008-25.079Z" transform="translate(76.884 1904.158)"/><g transform="translate(19.855 274.343)"><path class="b" d="M-50.506-1486.336l9.487-31.175,21.232,7.153-11.163,28.09Z" transform="translate(64.486 1517.511)"/><path class="c" d="M-60.986-1465.512l19.336,4.188a5.662,5.662,0,0,1,1.852.765l8.957,11.977,15.631,3.758a18.349,18.349,0,0,1,8.187,12.311l.531,3.05a2.889,2.889,0,0,1-3.736,3.243l-20.612-.48c-2.66-.861-17.559-5.05-20.353-4.941l-17.4-5.517a7.247,7.247,0,0,1-4.861-1.624h0a7.249,7.249,0,0,1-.733-10.552l1.892-2.038a7.236,7.236,0,0,0,1.115-1.579l5.378-10.306A4.381,4.381,0,0,1-60.986-1465.512Z" transform="translate(76.12 1493.938)"/><g transform="translate(43.699 40.499)"><path class="d" d="M5.775-1450.64a7.129,7.129,0,0,1,1.555,6.579" transform="translate(-5.775 1450.64)"/><path class="d" d="M12.751-1447.079a7.129,7.129,0,0,1,1.555,6.578" transform="translate(-8.943 1449.022)"/><path class="d" d="M20.4-1441.447a7.13,7.13,0,0,1,1.555,6.579" transform="translate(-12.417 1446.465)"/></g></g><g transform="translate(179.117 278.407)"><path class="b" d="M225.647-1476.364l-2.75-32.471,22.37-1.23.049,30.227Z" transform="translate(-218.953 1510.065)"/><path class="c" d="M222.417-1456.576l19.51-3.28a5.653,5.653,0,0,1,2,.023l28.669,5.5a18.347,18.347,0,0,1,12.168,8.4l1.624,2.636a2.889,2.889,0,0,1-2.266,4.4l-34.007,2.281a23.776,23.776,0,0,0-8.076,2l-16.173,7.2a7.251,7.251,0,0,1-5.116.295h0a7.249,7.249,0,0,1-4.593-9.528l1-2.595a7.258,7.258,0,0,0,.45-1.879l1.173-11.566A4.381,4.381,0,0,1,222.417-1456.576Z" transform="translate(-215.671 1487.296)"/><g transform="translate(37.196 27.254)"><path class="d" d="M283.82-1460.132a7.128,7.128,0,0,1,3.884,5.533" transform="translate(-283.82 1460.132)"/><path class="d" d="M291.619-1459.412a7.128,7.128,0,0,1,3.883,5.533" transform="translate(-287.362 1459.805)"/><path class="d" d="M300.809-1457.017a7.128,7.128,0,0,1,3.883,5.533" transform="translate(-291.536 1458.717)"/></g></g><path class="e" d="M239.59-1703.964l.93,6.92a1.43,1.43,0,0,0,1.943,1.139h0a1.429,1.429,0,0,0,.9-1.387l-.164-4.123,1.934,4.195a1.867,1.867,0,0,0,2.845.69h0a1.868,1.868,0,0,0,.666-1.91l-1.42-5.875,2.545,3.631a2.109,2.109,0,0,0,3.484-.045h0a2.109,2.109,0,0,0,.018-2.3l-2.324-3.629,3.056,1.5a2.341,2.341,0,0,0,3.3-1.5h0a2.342,2.342,0,0,0-.914-2.515l-5.824-4.1Z" transform="translate(-47.418 1880.769)"/><path class="a" d="M164.671-1856.092c-1.9,17.047,36.426,45.751,48.684,63.934,2.828,4.2,4.269,7.832,3.508,10.635-1.1,7.268-13.539,14.473-23.7,19.726-4.126.154-6.627-1.67-6.968-6.124a78.079,78.079,0,0,1-28.295-18.508l-3.918-52.017Z" transform="translate(-8.538 1945.635)"/><path class="a" d="M133.238-1904.279c11.865,6.445,24.022,12.6,22.938,31.893l-7,68.976-10.492-4.906-4.275-69.662-5.051-25.107Z" transform="translate(2.647 1967.521)"/><path class="f" d="M119.212-1659.581c-6.678-24.06-28.019-52.461-51.38-81.459.35-11.72-3.563-21.748-9.028-31.16l-3.144-2.761-33.847,2.022-12.407.194c-21.612,30.093-17.4,53.041-29.907,79.37a16.959,16.959,0,0,1-5.482,6.51c-11.52,8.22-19.736,18.7-26,30.508-7.51,8.462-8.256,15.7-6.356,22.459a12.273,12.273,0,0,0,10.733,8.886l27.668,2.462c8.278.339,13.665-11.933,18.616-26.109a27.178,27.178,0,0,1,8.01-11.651c10.676-9.152,20.324-25.359,29.392-45.545a405.084,405.084,0,0,1,36.173,41.074,34.747,34.747,0,0,1,7.062,18.338c.594,7.264,1.451,14.15,3.791,18.909a8.6,8.6,0,0,0,8.155,4.79l34.553-1.75a7.289,7.289,0,0,0,1.607-.235c7.468-2.1,1.533-14.666-5.539-28.114A34.015,34.015,0,0,1,119.212-1659.581Z" transform="translate(88.301 1908.786)"/><path class="g" d="M134.664-1900.952c13.042,13.416,28.261,23.407,19.528,42.164L132.5-1898.306Z" transform="translate(1.22 1966.01)"/><path class="h" d="M97.831-1911.117l.613,25.261,17.256,2.6,6.434-2.6-3.217-5.736v-21.935Z" transform="translate(16.968 1971.722)"/><path class="e" d="M-105.167-1723.188l-6.448,2.677a1.43,1.43,0,0,0-.6,2.17h0a1.43,1.43,0,0,0,1.572.517l3.943-1.219-3.557,2.947a1.868,1.868,0,0,0,.064,2.927h0a1.867,1.867,0,0,0,2.017.152l5.313-2.882-2.855,3.392a2.109,2.109,0,0,0,.939,3.356h0a2.11,2.11,0,0,0,2.23-.574l2.91-3.178-.668,3.341a2.341,2.341,0,0,0,2.3,2.8h0a2.341,2.341,0,0,0,2.2-1.529l2.471-6.684Z" transform="translate(112.497 1885.271)"/><path class="i" d="M-50.566-1960.961c2.368,14.308,12.861,33.46,30.072,56.615l30.055-12.822,26.119-43.793-6.561-37.276Z" transform="translate(84.369 2010.196)"/><path class="j" d="M84.8-1896.7c-.775,14.167,19.961,19.17,19.241,0,1.57,1.037,27.575,30.959,18.133,49.862a11.668,11.668,0,0,0-1.117,6.878c.859,5.959.8,10.841-2.647,11.766a41.024,41.024,0,0,0-4.832,1.521c-21.764,8.835-37.977,9.186-47.063-1.363l1.943-46.25,1.166-12.629C75.755-1889.931,82.312-1893.287,84.8-1896.7Z" transform="translate(31.191 1964.08)"/><path class="a" d="M6.773-1906.612l.125,4.7a23.564,23.564,0,0,1-8.024,6.786,3.5,3.5,0,0,0-1.294,5.15L6.9-1876.588c1.729,3.024.958,4.828-1.923,5.6,5.439,21.037-9.753,38.28-28.234,54.917-15.1,14.19-31.34,22.753-41.167,63.088a4.566,4.566,0,0,1-7.067,2.652c-14.285-9.98-24.251-22.589-18-45.073l-12.384-11.146a5.489,5.489,0,0,1-.723-7.442,6.491,6.491,0,0,1,4.65-2.629,5.612,5.612,0,0,0,5.145-4.021c4.559-15.47,16.584-28.822,39.239-39.16a18.874,18.874,0,0,0,8.1-7.139c4.056-6.434,9.2-11.289,16.647-12.821-8.754-3.726-4.561-10.9,3.1-19a32.228,32.228,0,0,1,15.43-9.225A24.477,24.477,0,0,1,6.773-1906.612Z" transform="translate(108.514 1969.616)"/><path class="g" d="M75.218-1876.588,65.9-1889.976a3.5,3.5,0,0,1,1.294-5.15,23.564,23.564,0,0,0,8.024-6.786l-.125-4.7a24.477,24.477,0,0,0-17.06-1.37C35.435-1900.737,49.453-1884.337,75.218-1876.588Z" transform="translate(40.193 1969.616)"/><path class="d" d="M-82.972-1731.351c10.157,6.88,12.852,9.452,16.764,17.383a5.09,5.09,0,0,1-1.218,6.108" transform="translate(99.087 1888.979)"/><path class="d" d="M-51.384-1725.547c15.561-9.416,30.781-18.959,29.46-34.708" transform="translate(84.74 1902.106)"/><path class="d" d="M38.751-1785.1c-16.028,5.466-32.577,20.691-38.033,22.187" transform="translate(61.076 1913.39)"/><path class="d" d="M67.309-1847.006c-8-6.545-18.591-10.219-33.794-8.772" transform="translate(46.18 1945.635)"/><path class="d" d="M207.3-1711.315c4.714-8.471,23.387-21.912,33-27.641" transform="translate(-32.755 1892.433)"/><path class="f" d="M81.763-1950.551c-19.584-1.913-26.724-25.787-14.007-38.249a29.146,29.146,0,0,0,4.189-5q5.784-9,18.354-11.834l9.994,2.053,8.551.524,6.98,9.6,11.343,11.692L131.7-1970.6l1.222,3.839-21.639,10.3-.025.016a36.617,36.617,0,0,1-15.6,5.66A69.974,69.974,0,0,1,81.763-1950.551Z" transform="translate(33.524 2013.555)"/><path class="k" d="M77.777-1953c1.511,2.963,6.039,3.976,13.582,2.921" transform="translate(26.076 1989.652)"/><path class="k" d="M73.063-1974.888c3.094-.487,4.821.646,5.176,2.254" transform="translate(28.217 1999.643)"/><path class="k" d="M112.635-1966.1a9.027,9.027,0,0,0-6.6,0" transform="translate(13.242 1995.881)"/><line class="k" x2="4.178" y2="0.352" transform="translate(106.04 20.925)"/><line class="k" x2="3.952" y2="1.4" transform="translate(120.601 23.241)"/><path class="k" d="M88.446-1968.748l-4.3,2.847a.961.961,0,0,0-.087,1.536l2.318,1.948" transform="translate(23.377 1996.803)"/><line class="l" x1="0.531" y2="6.906" transform="translate(135.353 61.319)"/><line class="l" x2="0.36" y2="6.891" transform="translate(115.287 63.004)"/><path class="m" d="M-78.707-1701.924a32.877,32.877,0,0,0,7.921,5.592" transform="translate(97.15 1875.613)"/><path class="m" d="M134.3-1713.276c-4.194,13.625-16.905,24.842-18.914,35.438" transform="translate(8.993 1880.769)"/><g transform="translate(32.494)"><path class="a" d="M-44.9-1951.377c27.091-22.246,54.076-41.823,80.8-54.691l6.592-5.312c2.525-6.17.426-9.012-5.986-8.752a22.087,22.087,0,0,0-9.817,2.857c-24.425,13.6-50.888,18.961-78.782,18.531C-54.5-1980.034-51.84-1964.4-44.9-1951.377Z" transform="translate(52.963 2020.148)"/><path class="d" d="M21.476-1972.832c-18.7,11.693-37.2,25.553-55.563,40.716" transform="translate(44.39 1998.657)"/></g><path class="a" d="M124.988-1953.141c.275-4.338,8.914-14.3,5.472-28.518-18.715.775-25.031-15.028-13.414-25.956,29.526-21.763,65.188,46.59,17.506,60C129.964-1945.692,124.524-1948.141,124.988-1953.141Z" transform="translate(10.897 2016.383)"/><path class="d" d="M-44.552-1464.6a32.165,32.165,0,0,0,14.33,3.1" transform="translate(81.637 1767.821)"/><path class="d" d="M234.468-1456.429c6.068.46,9.436-.336,11.193-1.882" transform="translate(-45.092 1764.966)"/></g><path class="d" d="M24.179-1738.829c-13.41,10.348-16.6,12.093-23.461,23.929" transform="translate(-51.422 -127.773)"/></g><g transform="translate(685.584 2248.248)"><g transform="translate(783.662 -1999.105)"><path class="n" d="M854.9-1968.6c-.852-7.8,10.663-29.562,26.443-30.507,1.919,14.083-5.318,26.224-24.674,35.793Z" transform="translate(-837.394 1999.105)"/><path class="o" d="M783.872-1949.14l4.112-.337c4.447-6.738,14.469-5.576,15.361,2.1a1.3,1.3,0,0,0,.339.755l.041.042a1.273,1.273,0,0,0,1.96-.277c8.862-14.258,20.179-25.374,38.165-27.948a.533.533,0,0,1,.592.644c-3.615,15.933-11.254,27.25-23.647,33.115l31.933,1.066-7.741,5.988,4.01,9.08-31.208-10.443c-11.3,15.058-33.965,6.933-31.323-10.089l-2.753-3.322A.228.228,0,0,1,783.872-1949.14Z" transform="translate(-783.662 1980.771)"/></g><path class="p" d="M824.177-1871.781c1.161-3.123,6.427-1.166,5.265,1.958" transform="translate(-30.577 -94.898)"/></g><g transform="matrix(0.995, -0.105, 0.105, 0.995, 1155.628, 2309.583)"><g transform="translate(783.662 -1999.105)"><path class="n" d="M854.891-1977.015c-.617-5.651,7.721-21.406,19.148-22.09,1.389,10.2-3.851,18.989-17.867,25.918Z" transform="translate(-842.213 1999.105)"/><path class="o" d="M783.814-1956.222l2.978-.244c3.22-4.879,10.477-4.038,11.123,1.52a.943.943,0,0,0,.246.547l.03.03a.922.922,0,0,0,1.419-.2c6.417-10.324,14.612-18.374,27.636-20.237a.386.386,0,0,1,.429.467c-2.618,11.537-8.149,19.732-17.123,23.979l23.123.772-5.605,4.336,2.9,6.575-22.6-7.562c-8.182,10.9-24.594,5.021-22.682-7.305l-1.994-2.406A.165.165,0,0,1,783.814-1956.222Z" transform="translate(-783.662 1979.126)"/></g><path class="p" d="M824.177-1872.217c.841-2.262,4.654-.844,3.813,1.418" transform="translate(-33.319 -103.408)"/></g><g transform="translate(931 369.703)"><path class="q" d="M1375.638-2202.949c8.361-6.326,15.607-11.1,16.794-7.465.266,1.475-.46,2.73-1.984,3.808a2.98,2.98,0,0,0-1.06,1.421,3.143,3.143,0,0,1-1.967,2.02,2.841,2.841,0,0,0-1.654,1.464c-.526,1.153-1.641,1.852-3.5,1.974a1.139,1.139,0,0,0-1.03.88c-.633,2.73-1.536,5.028-3.84,5.084a1.357,1.357,0,0,0-.939.412,1.693,1.693,0,0,1-1.8.528,1.37,1.37,0,0,0-1.34.19c-1.842,1.5-2.04-.923-1.28-4.66a.275.275,0,0,0-.485-.225,15.378,15.378,0,0,0-1.838,3.073.673.673,0,0,1-.851.362c-.621-.275-.422-1.306.153-2.381a.274.274,0,0,0-.4-.357c-2.04,1.388-3.966,1.559-5.707-.258a3.557,3.557,0,0,0-1.278-.86c-2.662-1.035-4.387-3.388-2.884-5.687a2.038,2.038,0,0,0,.314-1.281c-.132-1.623.187-2.972,1.371-3.8a2.466,2.466,0,0,0,1.075-2.328,4.762,4.762,0,0,1,.81-3.793,2.819,2.819,0,0,0,.666-1.782c.006-1.965,1.607-3.066,2.882-3.974,4.568-1.958,6.065,8.3,7.413,16.811a.224.224,0,0,0,.359.14c1.118-.885,1.737-.565,1.639.477A.228.228,0,0,0,1375.638-2202.949Z" transform="translate(-1358.188 2220.966)"/><path class="r" d="M1378.71-2208.8c.254,2.125.021,4.152-2.031,5.811-2.972,1.927-.91-19.5-8.058-18.6-.891.223-1,1.36-.493,2.768.187.779-.255.833-1.016.567-.8-.23-1.419.408-.778,1.839.478,1.1.122,1.771-.9,2.051-2.331.852,1.812,7.065,5.354,9.96a.437.437,0,0,0,.672-.522c-1.493-3.147-5.87-5.8-7.965-3.387-1.424,1.472-2.01,2.921-.277,4.306,1.02.969-1.558,2.44.362,4.786a2.324,2.324,0,0,0,.994.576,2.237,2.237,0,0,1,1.234.829c2.146,3.016,5.8-.312,9.27-2.891-2.241,1.96-4.252,4.766-3.34,5.745,1.094.818,1.106-3.306,4.189-5.089-1.615,2.405-2.581,6.607-1.484,7.167.552.195.863-1.065,1.219-1.308.368-.36.781.229,1.2.856.637.892,2.179-.348,2.008-2.572-.07-.309-.351.116-.383.708a1.2,1.2,0,0,0,1.818,1.057c3.5-2.125,4.634-8.022-.361-7.333a.349.349,0,0,0-.125.644c2.168,1.3,6.674.546,8.277-2.535a1.417,1.417,0,0,1,1.175-.757c1.106-.072,1.932-.84,2.317-2.7a1.352,1.352,0,0,1,.605-.873c3.428-2.136,3.1-4.56-.994-3.2a35.345,35.345,0,0,0-12.761,8.062.159.159,0,0,1-.238-.209c1.479-2.043,4.289-4.329,3.479-5.874" transform="translate(-1360.945 2221.609)"/><path class="s" d="M1444.345-2155.22a10.186,10.186,0,0,1-1,4.279l.506.1a20.032,20.032,0,0,0,2.487-5.539" transform="translate(-1427.344 2168.096)"/></g><g transform="translate(1464.246 466.581)"><path class="q" d="M1375.638-2202.949c8.361-6.326,15.607-11.1,16.794-7.465.266,1.475-.46,2.73-1.984,3.808a2.98,2.98,0,0,0-1.06,1.421,3.143,3.143,0,0,1-1.967,2.02,2.841,2.841,0,0,0-1.654,1.464c-.526,1.153-1.641,1.852-3.5,1.974a1.139,1.139,0,0,0-1.03.88c-.633,2.73-1.536,5.028-3.84,5.084a1.357,1.357,0,0,0-.939.412,1.693,1.693,0,0,1-1.8.528,1.37,1.37,0,0,0-1.34.19c-1.842,1.5-2.04-.923-1.28-4.66a.275.275,0,0,0-.485-.225,15.378,15.378,0,0,0-1.838,3.073.673.673,0,0,1-.851.362c-.621-.275-.422-1.306.153-2.381a.274.274,0,0,0-.4-.357c-2.04,1.388-3.966,1.559-5.707-.258a3.557,3.557,0,0,0-1.278-.86c-2.662-1.035-4.387-3.388-2.884-5.687a2.038,2.038,0,0,0,.314-1.281c-.132-1.623.187-2.972,1.371-3.8a2.466,2.466,0,0,0,1.075-2.328,4.762,4.762,0,0,1,.81-3.793,2.819,2.819,0,0,0,.666-1.782c.006-1.965,1.607-3.066,2.882-3.974,4.568-1.958,6.065,8.3,7.413,16.811a.224.224,0,0,0,.359.14c1.118-.885,1.737-.565,1.639.477A.228.228,0,0,0,1375.638-2202.949Z" transform="translate(-1358.188 2220.966)"/><path class="r" d="M1378.71-2208.8c.254,2.125.021,4.152-2.031,5.811-2.972,1.927-.91-19.5-8.058-18.6-.891.223-1,1.36-.493,2.768.187.779-.255.833-1.016.567-.8-.23-1.419.408-.778,1.839.478,1.1.122,1.771-.9,2.051-2.331.852,1.812,7.065,5.354,9.96a.437.437,0,0,0,.672-.522c-1.493-3.147-5.87-5.8-7.965-3.387-1.424,1.472-2.01,2.921-.277,4.306,1.02.969-1.558,2.44.362,4.786a2.324,2.324,0,0,0,.994.576,2.237,2.237,0,0,1,1.234.829c2.146,3.016,5.8-.312,9.27-2.891-2.241,1.96-4.252,4.766-3.34,5.745,1.094.818,1.106-3.306,4.189-5.089-1.615,2.405-2.581,6.607-1.484,7.167.552.195.863-1.065,1.219-1.308.368-.36.781.229,1.2.856.637.892,2.179-.348,2.008-2.572-.07-.309-.351.116-.383.708a1.2,1.2,0,0,0,1.818,1.057c3.5-2.125,4.634-8.022-.361-7.333a.349.349,0,0,0-.125.644c2.168,1.3,6.674.546,8.277-2.535a1.417,1.417,0,0,1,1.175-.757c1.106-.072,1.932-.84,2.317-2.7a1.352,1.352,0,0,1,.605-.873c3.428-2.136,3.1-4.56-.994-3.2a35.345,35.345,0,0,0-12.761,8.062.159.159,0,0,1-.238-.209c1.479-2.043,4.289-4.329,3.479-5.874" transform="translate(-1360.945 2221.609)"/><path class="s" d="M1444.345-2155.22a10.186,10.186,0,0,1-1,4.279l.506.1a20.032,20.032,0,0,0,2.487-5.539" transform="translate(-1427.344 2168.096)"/></g><g transform="translate(1372.473 2112.63)"><g transform="translate(126.724 -1660.441)"><path class="o" d="M353.958-1564.553q2.151-6.88-5.919-18.415C347.45-1575.938,349.176-1569.713,353.958-1564.553Z" transform="translate(-338.601 1632.557)"/><path class="o" d="M372-1531.415c3.586-3.2,5.036-9.494,4.379-18.841C372.267-1544.526,370.552-1538.3,372-1531.415Z" transform="translate(-347.084 1620.784)"/><path class="o" d="M343.891-1467.433c.184-4.8-3.346-10.212-10.534-16.222C334.629-1476.716,337.924-1471.161,343.891-1467.433Z" transform="translate(-333.357 1596.813)"/><path class="t" d="M353.533-1484.582l-7.386-52.437a11.27,11.27,0,0,1,8.536-12.532h0a11.27,11.27,0,0,0,4.283-19.866h0a15.477,15.477,0,0,1-1.168-23.458l11.648-11.051a11.269,11.269,0,0,0,3.49-8.9l-1.482-22.883" transform="translate(-337.92 1651.541)"/><g transform="translate(14.896)"><path class="u" d="M366.837-1646.266c3.531,3.531,8.921,3.866,12.039.748s2.783-8.508-.748-12.039-8.921-3.866-12.039-.748S363.306-1649.8,366.837-1646.266Z" transform="translate(-359.265 1660.441)"/><path class="u" d="M365.67-1625.317c4.993,0,9.041-3.574,9.041-7.984s-4.048-7.984-9.041-7.984-9.041,3.575-9.041,7.984S360.677-1625.317,365.67-1625.317Z" transform="translate(-356.629 1653.546)"/><path class="u" d="M393.546-1631.3c-3.531-3.531-8.92-3.866-12.039-.748s-2.783,8.508.748,12.039,8.921,3.866,12.039.748S397.077-1627.771,393.546-1631.3Z" transform="translate(-364.814 1650.991)"/><path class="u" d="M396.466-1651.89c-4.993,0-9.041,3.573-9.041,7.983s4.049,7.984,9.041,7.984,9.042-3.574,9.042-7.984S401.46-1651.89,396.466-1651.89Z" transform="translate(-367.713 1657.363)"/><path class="o" d="M381.54-1633.709a4.187,4.187,0,0,0,5.923,0,4.187,4.187,0,0,0,0-5.922,4.187,4.187,0,0,0-5.923,0A4.187,4.187,0,0,0,381.54-1633.709Z" transform="translate(-365.154 1653.393)"/></g></g><g transform="translate(-360.609 -1637.129)"><path class="v" d="M-205.669-1476.385a24.4,24.4,0,0,1,8.048-41.763h0a24.4,24.4,0,0,0,11.4-38.306l-6.227-7.853a24.4,24.4,0,0,1,.506-30.938l3.386-3.994" transform="translate(299.089 1615.102)"/><g transform="translate(88.649)"><path class="u" d="M-198.058-1609.846c3.531,3.531,8.921,3.866,12.039.748s2.783-8.508-.748-12.039-8.921-3.866-12.039-.748S-201.588-1613.377-198.058-1609.846Z" transform="translate(205.629 1624.021)"/><path class="u" d="M-199.224-1588.9c4.993,0,9.041-3.575,9.041-7.984s-4.048-7.984-9.041-7.984-9.041,3.575-9.041,7.984S-204.217-1588.9-199.224-1588.9Z" transform="translate(208.265 1617.126)"/><path class="u" d="M-171.348-1594.881c-3.531-3.531-8.92-3.865-12.039-.748s-2.783,8.507.748,12.039,8.921,3.865,12.039.748S-167.818-1591.35-171.348-1594.881Z" transform="translate(200.08 1614.571)"/><path class="u" d="M-168.428-1615.47c-4.993,0-9.041,3.574-9.041,7.984s4.048,7.984,9.041,7.984,9.042-3.575,9.042-7.984S-163.434-1615.47-168.428-1615.47Z" transform="translate(197.181 1620.943)"/><path class="o" d="M-183.354-1597.288a4.188,4.188,0,0,0,5.923,0,4.188,4.188,0,0,0,0-5.923,4.188,4.188,0,0,0-5.923,0A4.188,4.188,0,0,0-183.354-1597.288Z" transform="translate(199.74 1616.972)"/></g><path class="o" d="M-171.688-1544.069c3.586-3.2,5.036-9.494,4.378-18.841C-171.426-1557.181-173.141-1550.953-171.688-1544.069Z" transform="translate(283.933 1602.026)"/><path class="o" d="M-173.985-1544.162q2.151-6.879-5.919-18.415C-180.493-1555.547-178.767-1549.323-173.985-1544.162Z" transform="translate(286.746 1601.906)"/><path class="o" d="M-145.45-1499.242c1.434-4.586-.555-10.732-5.919-18.415C-151.958-1510.627-150.232-1504.4-145.45-1499.242Z" transform="translate(302.683 1585.739)"/><path class="o" d="M-150.512-1452.141c1.434-4.586-.554-10.732-5.918-18.415C-157.021-1463.526-155.294-1457.3-150.512-1452.141Z" transform="translate(304.505 1568.786)"/><path class="o" d="M-131.1-1488.194c3.156-2.016,5.685-7.072,7.6-15.125A25,25,0,0,0-131.1-1488.194Z" transform="translate(295.347 1580.578)"/><path class="o" d="M-179.048-1488.733q2.152-6.879-5.919-18.415C-185.556-1500.118-183.83-1493.894-179.048-1488.733Z" transform="translate(288.569 1581.956)"/><path class="o" d="M-201.618-1418.054q5-5.188,2.951-19.116C-202.342-1431.148-203.585-1424.809-201.618-1418.054Z" transform="translate(294.856 1556.77)"/><path class="v" d="M-213.644-1478.061a24.4,24.4,0,0,1-5.154-42.218h0a24.4,24.4,0,0,0-.908-39.955l-8.336-5.563a24.4,24.4,0,0,1-9.011-29.6l2-4.84" transform="translate(307.94 1615.461)"/><g transform="translate(53.061 2.685)"><path class="u" d="M-257.9-1604.5c4.444,2.277,9.677.942,11.687-2.982s.038-8.951-4.405-11.228-9.677-.942-11.688,2.982S-262.342-1606.782-257.9-1604.5Z" transform="translate(263.586 1619.826)"/><path class="u" d="M-252.465-1584.517c4.753-1.532,7.509-6.176,6.156-10.373s-6.3-6.357-11.055-4.824-7.509,6.176-6.156,10.372S-257.217-1582.985-252.465-1584.517Z" transform="translate(263.864 1612.765)"/><path class="u" d="M-227.885-1598.457c-4.444-2.277-9.677-.942-11.688,2.982s-.038,8.951,4.406,11.228,9.676.942,11.687-2.982S-223.441-1596.179-227.885-1598.457Z" transform="translate(255.404 1612.535)"/><path class="u" d="M-231.308-1619.258c-4.752,1.531-7.508,6.175-6.155,10.372s6.3,6.357,11.054,4.824,7.509-6.176,6.156-10.373S-226.554-1620.791-231.308-1619.258Z" transform="translate(254.486 1619.799)"/><path class="o" d="M-240.51-1596.373a4.187,4.187,0,0,0,5.637-1.817,4.188,4.188,0,0,0-1.817-5.637,4.187,4.187,0,0,0-5.637,1.817A4.188,4.188,0,0,0-240.51-1596.373Z" transform="translate(256.279 1614.234)"/></g><path class="o" d="M-211.843-1549.308q3.648-6.218-1.614-19.275C-215.616-1561.867-215.338-1555.414-211.843-1549.308Z" transform="translate(299.277 1604.068)"/><path class="o" d="M-215.842-1547.868c-.042-4.805-3.821-10.044-11.283-15.71C-225.529-1556.706-221.977-1551.311-215.842-1547.868Z" transform="translate(303.702 1602.266)"/><path class="o" d="M-203.653-1493.559c-.042-4.805-3.821-10.044-11.283-15.71C-213.34-1502.4-209.788-1497-203.653-1493.559Z" transform="translate(299.315 1582.72)"/><path class="o" d="M-201.892-1420.014q3.17-6.473-3.056-19.1C-206.6-1432.254-205.837-1425.839-201.892-1420.014Z" transform="translate(296.015 1557.469)"/><path class="t" d="M-149.218-1452.835l1.488-22.3a8.062,8.062,0,0,1,3.558-6.163l6.671-4.468a8.063,8.063,0,0,0-1.891-14.333h0a8.063,8.063,0,0,1-5.3-9.274h0a24.709,24.709,0,0,1,6.915-12.64l12.062-11.8" transform="translate(301.869 1591.552)"/><g transform="translate(159.299 43.253)"><path class="u" d="M-129.97-1544.14c3.065,3.065,7.744,3.356,10.451.649s2.416-7.386-.649-10.451-7.744-3.356-10.451-.649S-133.035-1547.206-129.97-1544.14Z" transform="translate(136.544 1556.446)"/><path class="u" d="M-130.983-1525.953c4.335,0,7.849-3.1,7.849-6.931s-3.515-6.932-7.849-6.932-7.849,3.1-7.849,6.932S-135.318-1525.953-130.983-1525.953Z" transform="translate(138.832 1550.46)"/><path class="u" d="M-106.782-1531.149c-3.065-3.066-7.744-3.356-10.451-.65s-2.416,7.387.649,10.452,7.745,3.356,10.451.649S-103.717-1528.083-106.782-1531.149Z" transform="translate(131.726 1548.242)"/><path class="u" d="M-104.247-1549.023c-4.335,0-7.849,3.1-7.849,6.931s3.514,6.931,7.849,6.931,7.849-3.1,7.849-6.931S-99.911-1549.023-104.247-1549.023Z" transform="translate(129.209 1553.774)"/><path class="o" d="M-117.2-1533.238a3.635,3.635,0,0,0,5.141,0,3.636,3.636,0,0,0,0-5.142,3.635,3.635,0,0,0-5.141,0A3.635,3.635,0,0,0-117.2-1533.238Z" transform="translate(131.432 1550.327)"/></g><path class="o" d="M-317.062-1524.523c1.013-3.239-.392-7.578-4.179-13A16.237,16.237,0,0,0-317.062-1524.523Z" transform="translate(312.576 1592.89)"/><path class="o" d="M-304.319-1501.123c2.532-2.259,3.556-6.7,3.092-13.3A16.239,16.239,0,0,0-304.319-1501.123Z" transform="translate(306.587 1584.576)"/><path class="o" d="M-324.171-1455.945c.129-3.391-2.363-7.211-7.438-11.455A16.24,16.24,0,0,0-324.171-1455.945Z" transform="translate(316.279 1567.651)"/><path class="t" d="M-317.362-1468.055l-5.216-37.026a7.958,7.958,0,0,1,6.028-8.849h0a7.958,7.958,0,0,0,3.024-14.027h0a10.928,10.928,0,0,1-.824-16.564l8.224-7.8a7.959,7.959,0,0,0,2.464-6.288l-1.046-16.158" transform="translate(313.057 1606.294)"/><g transform="translate(-4.812 20.349)"><path class="u" d="M-307.969-1582.221c2.493,2.493,6.3,2.729,8.5.528s1.966-6.008-.527-8.5-6.3-2.729-8.5-.527S-310.462-1584.714-307.969-1582.221Z" transform="translate(313.316 1592.23)"/><path class="u" d="M-308.793-1567.428c3.526,0,6.384-2.524,6.384-5.638s-2.858-5.637-6.384-5.637-6.384,2.524-6.384,5.638S-312.318-1567.428-308.793-1567.428Z" transform="translate(315.177 1587.361)"/><path class="u" d="M-289.109-1571.655c-2.493-2.493-6.3-2.73-8.5-.528s-1.965,6.008.529,8.5,6.3,2.73,8.5.528S-286.616-1569.161-289.109-1571.655Z" transform="translate(309.397 1585.557)"/><path class="u" d="M-287.047-1586.192c-3.526,0-6.384,2.524-6.384,5.637s2.859,5.637,6.384,5.637,6.384-2.524,6.384-5.637S-283.521-1586.192-287.047-1586.192Z" transform="translate(307.35 1590.056)"/><path class="o" d="M-297.586-1573.354a2.957,2.957,0,0,0,4.182,0,2.958,2.958,0,0,0,0-4.182,2.957,2.957,0,0,0-4.182,0A2.957,2.957,0,0,0-297.586-1573.354Z" transform="translate(309.157 1587.253)"/></g></g></g><g transform="translate(-207.508 2673.797)"><path class="q" d="M1375.035-2202.949c-8.361-6.326-15.607-11.1-16.794-7.465-.266,1.475.46,2.73,1.984,3.808a2.98,2.98,0,0,1,1.06,1.421,3.143,3.143,0,0,0,1.967,2.02,2.841,2.841,0,0,1,1.654,1.464c.526,1.153,1.641,1.852,3.5,1.974a1.139,1.139,0,0,1,1.03.88c.633,2.73,1.536,5.028,3.84,5.084a1.357,1.357,0,0,1,.939.412,1.693,1.693,0,0,0,1.8.528,1.37,1.37,0,0,1,1.34.19c1.842,1.5,2.04-.923,1.28-4.66a.275.275,0,0,1,.485-.225,15.378,15.378,0,0,1,1.838,3.073.673.673,0,0,0,.851.362c.621-.275.422-1.306-.153-2.381a.274.274,0,0,1,.4-.357c2.04,1.388,3.966,1.559,5.707-.258a3.557,3.557,0,0,1,1.278-.86c2.662-1.035,4.387-3.388,2.884-5.687a2.038,2.038,0,0,1-.314-1.281c.132-1.623-.187-2.972-1.371-3.8a2.466,2.466,0,0,1-1.075-2.328,4.762,4.762,0,0,0-.81-3.793,2.819,2.819,0,0,1-.666-1.782c-.006-1.965-1.607-3.066-2.882-3.974-4.568-1.958-6.064,8.3-7.412,16.811a.224.224,0,0,1-.359.14c-1.118-.885-1.737-.565-1.639.477A.228.228,0,0,1,1375.035-2202.949Z" transform="translate(0 -0.643)"/><path class="r" d="M1377.97-2208.8c-.254,2.125-.021,4.152,2.031,5.811,2.972,1.927.91-19.5,8.058-18.6.891.223,1,1.36.493,2.768-.187.779.255.833,1.016.567.8-.23,1.419.408.778,1.839-.478,1.1-.122,1.771.9,2.051,2.331.852-1.812,7.065-5.354,9.96a.437.437,0,0,1-.672-.522c1.493-3.147,5.87-5.8,7.965-3.387,1.424,1.472,2.01,2.921.277,4.306-1.02.969,1.558,2.44-.362,4.786a2.324,2.324,0,0,1-.994.576,2.237,2.237,0,0,0-1.234.829c-2.146,3.016-5.8-.312-9.27-2.891,2.241,1.96,4.252,4.766,3.34,5.745-1.094.818-1.106-3.306-4.189-5.089,1.615,2.405,2.581,6.607,1.484,7.167-.552.195-.863-1.065-1.219-1.308-.368-.36-.781.229-1.2.856-.637.892-2.179-.348-2.008-2.572.07-.309.351.116.383.708a1.2,1.2,0,0,1-1.818,1.057c-3.5-2.125-4.634-8.022.361-7.333a.349.349,0,0,1,.125.644c-2.168,1.3-6.674.546-8.277-2.535a1.417,1.417,0,0,0-1.175-.757c-1.106-.072-1.932-.84-2.317-2.7a1.352,1.352,0,0,0-.605-.873c-3.428-2.136-3.1-4.56.994-3.2a35.345,35.345,0,0,1,12.761,8.062.159.159,0,0,0,.238-.209c-1.479-2.043-4.289-4.329-3.479-5.874" transform="translate(-3.25 0)"/><path class="s" d="M1445.342-2155.22a10.186,10.186,0,0,0,1,4.279l-.506.1a20.032,20.032,0,0,1-2.487-5.539" transform="translate(-69.858 -53.512)"/></g></g></svg>